<svg version="1.1" xmlns="http://www.w3.org/2000/svg" style="display: block;" viewBox="194.667 18.667 1652 1680" width="1652" height="1680" preserveAspectRatio="none">
<defs>
	<linearGradient id="Gradient1" gradientUnits="userSpaceOnUse" x1="1221.91" y1="359.018" x2="1228.35" y2="363.145">
		<stop class="stop0" offset="0" stop-opacity="0.968627" stop-color="rgb(123,96,90)"/>
		<stop class="stop1" offset="1" stop-opacity="1" stop-color="rgb(126,95,79)"/>
	</linearGradient>
	<linearGradient id="Gradient2" gradientUnits="userSpaceOnUse" x1="1507.31" y1="1458.12" x2="1505.72" y2="1466.7">
		<stop class="stop0" offset="0" stop-opacity="0" stop-color="rgb(255,255,255)"/>
		<stop class="stop1" offset="1" stop-opacity="0.0352941" stop-color="rgb(249,233,230)"/>
	</linearGradient>
	<linearGradient id="Gradient3" gradientUnits="userSpaceOnUse" x1="1159.72" y1="1461.7" x2="1162.55" y2="1471.22">
		<stop class="stop0" offset="0" stop-opacity="0" stop-color="rgb(255,255,255)"/>
		<stop class="stop1" offset="1" stop-opacity="0.0588235" stop-color="rgb(245,229,220)"/>
	</linearGradient>
	<linearGradient id="Gradient4" gradientUnits="userSpaceOnUse" x1="1133.6" y1="1406.05" x2="1137.96" y2="1415.94">
		<stop class="stop0" offset="0" stop-opacity="0" stop-color="rgb(255,254,255)"/>
		<stop class="stop1" offset="1" stop-opacity="0.0470588" stop-color="rgb(247,243,238)"/>
	</linearGradient>
	<linearGradient id="Gradient5" gradientUnits="userSpaceOnUse" x1="1154" y1="1356.18" x2="1162.22" y2="1383.26">
		<stop class="stop0" offset="0" stop-opacity="0" stop-color="rgb(255,252,253)"/>
		<stop class="stop1" offset="1" stop-opacity="0.054902" stop-color="rgb(247,245,244)"/>
	</linearGradient>
	<linearGradient id="Gradient6" gradientUnits="userSpaceOnUse" x1="873.722" y1="1460.05" x2="870.777" y2="1470.22">
		<stop class="stop0" offset="0" stop-opacity="0" stop-color="rgb(255,255,255)"/>
		<stop class="stop1" offset="1" stop-opacity="0.0470588" stop-color="rgb(246,240,229)"/>
	</linearGradient>
	<linearGradient id="Gradient7" gradientUnits="userSpaceOnUse" x1="528.689" y1="1457.77" x2="530.368" y2="1467.57">
		<stop class="stop0" offset="0" stop-opacity="0" stop-color="rgb(255,255,255)"/>
		<stop class="stop1" offset="1" stop-opacity="0.0470588" stop-color="rgb(246,226,221)"/>
	</linearGradient>
	<linearGradient id="Gradient8" gradientUnits="userSpaceOnUse" x1="882.169" y1="1430.94" x2="878.539" y2="1439.77">
		<stop class="stop0" offset="0" stop-opacity="0" stop-color="rgb(255,255,254)"/>
		<stop class="stop1" offset="1" stop-opacity="0.0392157" stop-color="rgb(252,247,248)"/>
	</linearGradient>
	<linearGradient id="Gradient9" gradientUnits="userSpaceOnUse" x1="876.611" y1="1392.45" x2="870.018" y2="1411.72">
		<stop class="stop0" offset="0" stop-opacity="0" stop-color="rgb(255,254,254)"/>
		<stop class="stop1" offset="1" stop-opacity="0.0509804" stop-color="rgb(247,244,244)"/>
	</linearGradient>
	<linearGradient id="Gradient10" gradientUnits="userSpaceOnUse" x1="878.245" y1="1357.78" x2="871.189" y2="1377.26">
		<stop class="stop0" offset="0" stop-opacity="0" stop-color="rgb(255,253,254)"/>
		<stop class="stop1" offset="1" stop-opacity="0.0431373" stop-color="rgb(247,243,237)"/>
	</linearGradient>
</defs>
<path transform="translate(0,0)" fill="rgb(104,55,43)" d="M 926.222 60.7719 C 939.634 59.2678 953.048 56.7591 966.383 55.413 C 1013.44 50.6626 1061.29 49.9571 1108.05 57.9036 C 1113.91 58.9003 1120.88 60.1299 1126.79 60.7503 C 1133.59 62.2672 1141.38 63.7425 1147.99 65.4589 C 1293.2 93.8761 1426.01 187.775 1507.5 310.113 C 1536.44 353.556 1553.17 386.864 1574.37 433.879 C 1624.83 450.074 1666.71 485.814 1690.64 533.111 C 1715.62 582.859 1719.82 640.492 1702.31 693.336 C 1685.71 743.76 1649.34 785.278 1601.53 808.365 C 1549.76 833.945 1486.2 835.63 1434.26 809.636 C 1363.4 842.606 1332.21 852.297 1365.75 758.978 C 1328.84 713.122 1309.7 665.924 1315.92 605.748 C 1321.96 551.474 1349.57 501.908 1392.53 468.195 C 1438.66 431.322 1485.38 422.882 1542.87 426.131 C 1482.33 286.826 1373.13 173.132 1230.85 117.024 C 1090.61 62.7562 934.564 66.3073 796.93 126.898 C 789.194 130.268 747.941 149.404 742.641 154.186 C 738.641 156.345 733.409 158.971 729.748 161.472 C 726.048 163.086 714.219 170.713 710.242 173.258 C 674.308 196.667 640.987 223.861 610.851 254.374 C 538.021 326.856 486.194 417.719 460.882 517.304 C 441.801 592.347 443.95 664.093 443.942 740.442 L 444.049 906.284 L 444.078 1378.02 C 452.336 1387.09 460.883 1394.81 469.881 1403.1 C 479.383 1393.43 489.473 1383.85 499.211 1374.39 C 524.7 1349.65 548.304 1322.52 574.989 1299.12 C 581.728 1293.21 602.09 1291.79 611.169 1290.25 C 762.036 1264.74 916.795 1300.71 1009.17 1430.45 C 1008.92 1457.1 1008.87 1483.76 1009.02 1510.42 C 984.822 1514.55 974.863 1520.59 957.542 1538.16 C 937.617 1525.96 918.278 1514.94 896.213 1506.64 C 769.524 1459 625.502 1484.45 496.548 1509.48 C 466.249 1515.36 399.289 1528.44 372.788 1540.21 C 381.215 1549.36 385.188 1551.41 396.336 1555.95 C 395.449 1556 394.561 1556.04 393.673 1556.08 C 383.198 1556.54 367.885 1557.89 359.498 1550.35 C 356.168 1547.54 354.448 1540.22 357.269 1536.51 C 378.455 1508.61 401.869 1481.6 424.204 1454.63 C 435.283 1441.26 446.511 1427.53 458.2 1415.16 C 441.563 1399.6 425.553 1383.38 410.209 1366.54 C 385.215 1365.3 366.964 1369.47 339.818 1362.12 C 311.047 1354.33 289.409 1335.16 274.668 1309.58 C 327.575 1293.4 360.706 1318.42 399.193 1350.63 C 385.416 1333.54 372.222 1314 360.422 1295.55 C 353.246 1282.19 345.427 1277.22 331.062 1273.11 C 280.394 1258.61 245.373 1239.9 233.157 1184.72 C 291.994 1185.84 308.551 1213 341.261 1255.51 C 333.12 1234.72 317.661 1170.71 299.445 1162.59 C 251.045 1141.01 223.116 1103.49 227.102 1049.37 C 229.796 1050.4 232.473 1051.46 235.132 1052.58 C 279.299 1071.21 293.885 1101.95 310.793 1143.39 C 308.257 1128.43 304.881 1066.54 298.564 1058.82 C 261.958 1014.04 241.358 980.955 260.246 922.645 C 293.753 943.559 301.62 982.581 305.374 1018.97 C 307.196 1008.68 311.264 942.086 309.92 932.755 C 308.903 925.702 306.254 918.513 304.359 911.635 C 301.206 900.194 300.437 887.911 301.114 876.09 C 303.072 841.884 319.452 812.587 344.667 789.926 C 363.065 830.143 359.985 870.963 340.909 909.952 C 337.042 917.856 326.705 934.804 325.406 941.572 C 320.2 968.705 319.493 1004.62 318.541 1032.38 C 320.188 1027.29 321.671 1020.75 322.46 1015.4 C 328.457 974.708 347.817 944.482 385.972 926.825 C 388.639 962.231 381.494 994.442 355.988 1020.43 C 344.902 1031.72 325.859 1048.13 318.168 1061.04 C 318 1088.25 321.746 1133.18 329.492 1158.77 C 332.381 1102.22 337.203 1078.8 387.576 1047.96 C 390.305 1063.04 389.837 1076.22 388.635 1091.15 C 385.051 1135.69 357.389 1151.42 334.942 1186 C 342.305 1221.56 359.038 1259.34 376.898 1290.82 C 363.807 1250.82 358.813 1212.42 389.016 1178.86 C 422.429 1232.9 416.092 1260.66 396.833 1318.45 C 404.032 1330.18 411.584 1340.28 419.944 1351.1 C 417.56 1325.66 418.995 1275.39 418.993 1247.79 L 418.792 1057.63 L 419.056 774.629 C 419.169 697.903 415.141 615.372 429.699 540.21 C 474.641 308.179 673.143 110.898 904.583 65.6419 L 926.222 60.7719 z M 944.125 1435.81 C 911.578 1408.76 860.267 1379.99 818.128 1372.2 C 810.21 1369.33 793.848 1366.17 785.141 1364.69 C 730.066 1355.34 678.261 1356.06 623.261 1364.43 C 616.553 1365.3 610.146 1365.89 603.664 1367.83 C 597.4 1368.31 576.359 1370.37 571.566 1373.23 L 571.408 1374.07 C 581.96 1370.95 593.086 1371.08 603.939 1369.09 L 627.197 1366.38 C 674.22 1362.56 715.044 1361.59 762.039 1367.93 C 777.746 1370.05 791.754 1372.9 807.235 1375.52 C 813.189 1377.44 819.214 1378.86 825.265 1380.43 C 868.259 1391.59 908.983 1410.42 943.601 1438.58 C 951.531 1445.1 958.411 1451.79 966.658 1458.22 C 965.149 1454.24 948.345 1439.57 944.125 1435.81 z M 909.482 1479.85 C 885.796 1465.96 867.688 1458.36 842.001 1449.29 C 760.084 1426.73 697.06 1426.6 612.533 1441 C 600.453 1443.06 571.585 1448.31 560.688 1452.16 C 545.459 1454.48 493.304 1471.21 479.186 1477.23 L 478.958 1477.72 C 497.649 1473.07 516.015 1468.26 534.797 1463.97 C 539.841 1462.82 564.514 1457.46 567.366 1456.23 C 583.19 1454.87 606.612 1448.95 625.151 1447.06 C 697.549 1439.7 762.89 1436.47 833.646 1453.8 C 858.418 1460.61 886.465 1469.61 908.96 1482 C 917.856 1487.12 925.356 1493.66 934.097 1498.38 C 925.099 1489.33 920.567 1486.38 909.482 1479.85 z M 1434.82 781.798 C 1452.19 790.83 1470.88 798.232 1490.43 800.682 C 1537.04 806.757 1582.67 796.14 1620.16 767.255 C 1656.71 738.927 1680.3 697.069 1685.61 651.136 C 1691.78 602.219 1678.1 552.868 1647.63 514.106 C 1619.87 479.49 1579.35 457.498 1535.2 453.083 C 1527.29 452.224 1511.66 451.392 1503.77 452.406 C 1453.17 457.275 1412.3 476.319 1379.53 516.121 C 1350.71 551.679 1337.16 597.219 1341.87 642.75 C 1346.42 686.269 1363.97 720.143 1393.57 751.677 C 1388.98 768.329 1383.73 789.22 1377.93 805.171 C 1400.17 797.436 1413.91 790.299 1434.82 781.798 z M 820.311 1342.46 C 822.325 1343.57 830.501 1345.89 833.113 1346.66 C 853.236 1352.62 871.764 1360.16 890.446 1369.78 C 905.243 1377.35 919.487 1385.96 933.072 1395.54 C 936.938 1398.28 953.9 1411.37 956.078 1412.45 C 931.234 1382.82 857.265 1342.5 818.282 1336.26 C 811.197 1333.44 798.425 1330.93 790.601 1329.38 C 744.151 1320.19 704.109 1320.89 657.449 1325.94 C 641.892 1327.89 626.355 1329.99 610.837 1332.23 L 610.516 1332.79 C 614.935 1333.25 652.581 1329.84 659.473 1329.27 C 707.307 1328.01 753.974 1327.9 800.851 1338.25 C 807.098 1339.62 814.126 1341.43 820.311 1342.46 z M 552.219 1412.46 L 557.462 1411.59 C 658.908 1394.19 742.047 1392.85 841.076 1420.69 C 864.702 1429.21 884.907 1437.59 906.987 1449.54 C 911.918 1452.2 925.946 1461.92 928.373 1462.8 L 928.782 1461.91 C 916.587 1451.35 877.653 1425.9 862.194 1421.44 C 780.377 1378.25 642.974 1388.97 556.59 1409.48 L 551.763 1410.5 C 548.75 1411.06 545.455 1411.2 543.328 1413.15 C 546.25 1414 549.125 1413.05 552.219 1412.46 z M 951.525 1481.46 C 947.947 1477.86 946.864 1476.15 942.192 1474.61 C 945.617 1478.62 946.469 1480.61 951.525 1481.46 z M 953.447 1485.48 C 955.268 1489.24 959.178 1492.6 963.008 1494.31 C 959.93 1489.81 959.137 1488.86 955.14 1485.17 L 953.447 1485.48 z"/>
<path transform="translate(0,0)" fill="rgb(104,55,43)" d="M 1514.2 501.585 C 1520.24 503.492 1526.56 515.399 1530.25 521.198 C 1535.8 523.899 1544.92 526.343 1547.47 531.719 C 1542.36 541.524 1529.37 538.879 1528.69 558.418 C 1528.15 573.925 1527.91 588.127 1528.9 603.776 C 1548.31 603.208 1567.72 602.921 1587.13 602.917 C 1595.17 597.139 1598.36 590.489 1603.6 582.165 C 1607.76 587.749 1609.94 594.528 1614.37 599.824 C 1619.64 606.141 1625.65 609.317 1631.91 615.365 L 1632.91 616.347 C 1627.6 620.892 1620.13 625.05 1614.03 628.617 C 1609.84 638.31 1608.78 641.232 1602.98 650.141 C 1587.73 626.143 1592.57 626.857 1560.26 627.283 C 1550.1 627.418 1538.68 627.509 1528.36 627.778 C 1529.43 656.525 1527.35 686.851 1529.11 715.132 C 1535.1 722.24 1540.61 724.987 1547.94 730.716 C 1541.83 736.554 1537.51 737.909 1529.8 741.318 C 1526.16 746.793 1522.69 752.881 1518.89 758.619 C 1516.32 760.269 1517.7 759.839 1514.56 759.859 C 1508.77 756.895 1505.36 748.131 1502.32 742.161 C 1496.56 739.516 1487.16 737.62 1484.71 731.579 C 1485.67 726.026 1494.88 721.603 1500.3 716.707 L 1501.2 715.886 C 1502.95 688.064 1501.55 656.864 1502.6 628.113 C 1489.88 626.574 1463.3 625.198 1451.1 628.268 C 1439.78 631.118 1435.19 640.626 1430.42 650.018 C 1425.54 643.356 1422.52 635.558 1419.21 627.988 C 1412.85 625.422 1404.22 619.525 1398.73 615.385 C 1405.64 610.341 1411.93 606.704 1419.25 602.381 C 1422.66 595.254 1425.42 589.732 1429.36 582.91 C 1434.27 590.595 1437.31 595.575 1443.27 602.353 C 1461.28 603.534 1483.54 603.189 1501.86 603.383 C 1501.8 586.484 1502.51 565.772 1501.46 549.404 C 1496.3 543.036 1484.83 536.983 1485.23 529.8 C 1488.98 524.654 1494.83 523.799 1500.97 521.99 C 1505.33 515.673 1509.79 508.185 1514.2 501.585 z"/>
<path transform="translate(0,0)" fill="url(#Gradient10)" d="M 820.311 1342.46 L 821.427 1341.76 C 817.244 1339.62 807.351 1337.43 802.578 1337.06 L 802.423 1336.08 C 806.501 1334.66 813.766 1335.82 818.282 1336.26 C 857.265 1342.5 931.234 1382.82 956.078 1412.45 C 953.9 1411.37 936.938 1398.28 933.072 1395.54 C 919.487 1385.96 905.243 1377.35 890.446 1369.78 C 871.764 1360.16 853.236 1352.62 833.113 1346.66 C 830.501 1345.89 822.325 1343.57 820.311 1342.46 z"/>
<path transform="translate(0,0)" fill="url(#Gradient9)" d="M 807.235 1375.52 L 808.412 1374.79 C 804.86 1373.3 805.059 1373.38 803.585 1370.4 C 808.016 1371.73 812.632 1372.36 817.26 1372.24 C 817.549 1372.23 817.839 1372.22 818.128 1372.2 C 860.267 1379.99 911.578 1408.76 944.125 1435.81 L 943.601 1438.58 C 908.983 1410.42 868.259 1391.59 825.265 1380.43 C 819.214 1378.86 813.189 1377.44 807.235 1375.52 z"/>
<path transform="translate(0,0)" fill="url(#Gradient8)" d="M 841.076 1420.69 C 841.421 1419.27 841.755 1417.85 842.076 1416.43 C 847.984 1414.41 852.349 1420.46 862.194 1421.44 C 877.653 1425.9 916.587 1451.35 928.782 1461.91 L 928.373 1462.8 C 925.946 1461.92 911.918 1452.2 906.987 1449.54 C 884.907 1437.59 864.702 1429.21 841.076 1420.69 z"/>
<path transform="translate(0,0)" fill="url(#Gradient7)" d="M 560.688 1452.16 C 565.674 1451.97 569.92 1451.84 574.872 1451.26 L 575.022 1451.82 C 572.369 1453.44 571.797 1454.02 568.759 1454.78 L 567.366 1456.23 C 564.514 1457.46 539.841 1462.82 534.797 1463.97 C 516.015 1468.26 497.649 1473.07 478.958 1477.72 L 479.186 1477.23 C 493.304 1471.21 545.459 1454.48 560.688 1452.16 z"/>
<path transform="translate(0,0)" fill="url(#Gradient6)" d="M 842.001 1449.29 C 867.688 1458.36 885.796 1465.96 909.482 1479.85 L 908.96 1482 C 886.465 1469.61 858.418 1460.61 833.646 1453.8 C 836.847 1451.81 838.582 1450.91 842.001 1449.29 z"/>
<path transform="translate(0,0)" fill="rgb(228,201,194)" fill-opacity="0.0509804" d="M 659.473 1329.27 C 652.581 1329.84 614.935 1333.25 610.516 1332.79 L 610.837 1332.23 C 626.355 1329.99 641.892 1327.89 657.449 1325.94 L 659.473 1329.27 z"/>
<path transform="translate(0,0)" fill="rgb(228,201,194)" fill-opacity="0.12549" d="M 944.125 1435.81 C 948.345 1439.57 965.149 1454.24 966.658 1458.22 C 958.411 1451.79 951.531 1445.1 943.601 1438.58 L 944.125 1435.81 z"/>
<path transform="translate(0,0)" fill="rgb(242,230,224)" fill-opacity="0.113725" d="M 909.482 1479.85 C 920.567 1486.38 925.099 1489.33 934.097 1498.38 C 925.356 1493.66 917.856 1487.12 908.96 1482 L 909.482 1479.85 z"/>
<path transform="translate(0,0)" fill="rgb(121,88,79)" fill-opacity="0.87451" d="M 603.939 1369.09 C 593.086 1371.08 581.96 1370.95 571.408 1374.07 L 571.566 1373.23 C 576.359 1370.37 597.4 1368.31 603.664 1367.83 L 603.939 1369.09 z"/>
<path transform="translate(0,0)" fill="rgb(228,201,194)" fill-opacity="0.0313725" d="M 603.664 1367.83 C 610.146 1365.89 616.553 1365.3 623.261 1364.43 L 627.197 1366.38 L 603.939 1369.09 L 603.664 1367.83 z"/>
<path transform="translate(0,0)" fill="rgb(121,88,79)" fill-opacity="0.796078" d="M 953.447 1485.48 L 955.14 1485.17 C 959.137 1488.86 959.93 1489.81 963.008 1494.31 C 959.178 1492.6 955.268 1489.24 953.447 1485.48 z"/>
<path transform="translate(0,0)" fill="rgb(189,162,157)" fill-opacity="0.247059" d="M 552.219 1412.46 C 549.125 1413.05 546.25 1414 543.328 1413.15 C 545.455 1411.2 548.75 1411.06 551.763 1410.5 L 552.219 1412.46 z"/>
<path transform="translate(0,0)" fill="rgb(121,88,79)" fill-opacity="0.882353" d="M 942.192 1474.61 C 946.864 1476.15 947.947 1477.86 951.525 1481.46 C 946.469 1480.61 945.617 1478.62 942.192 1474.61 z"/>
<path transform="translate(0,0)" fill="rgb(228,201,194)" fill-opacity="0.0627451" d="M 556.59 1409.48 L 557.462 1411.59 L 552.219 1412.46 L 551.763 1410.5 L 556.59 1409.48 z"/>
<path transform="translate(0,0)" fill="rgb(104,55,43)" d="M 1008.75 135.455 C 1014.68 135.112 1021.09 135.063 1027.07 134.907 C 1027.04 145.74 1027.31 156.572 1027.87 167.391 C 1038.06 167.433 1048.25 167.615 1058.43 167.939 L 1058.2 187.916 C 1048.12 187.55 1037.7 187.649 1027.59 187.611 C 1028.11 197.091 1027.83 208.896 1027.87 218.55 C 1035.1 224.764 1036.15 227.916 1038.34 236.695 C 1034.36 256.198 1020.43 260.743 1040.52 279.007 C 1042.74 287.89 1043.68 294.506 1046.61 303.586 C 1050.93 304.115 1054.8 304.168 1058.26 306.915 C 1066.52 313.478 1067.06 331.181 1068.41 341.702 C 1082.63 348.492 1080.53 352.227 1079.18 367.012 C 1077.49 385.598 1076.77 403.464 1077.08 422.094 C 1082.74 425.38 1090.56 428.544 1096.7 431.231 C 1096.58 436.76 1095.23 443.462 1096.89 448.113 C 1099.83 449.622 1110.69 454.257 1113.76 454.753 C 1133.49 464.808 1149.4 473.337 1167.57 486.403 C 1223.69 526.749 1263.46 586.152 1285.16 651.289 C 1297.74 689.083 1303.04 728.764 1305.11 768.369 C 1313.59 774.898 1320.98 780.467 1327.97 788.724 C 1299.42 837.193 1321.81 823.444 1324.29 866.703 C 1335.27 867.223 1381.2 868.871 1381.38 881.654 C 1376.71 890.556 1367.9 888.911 1371.6 900.921 C 1373.55 907.246 1377.28 914.242 1374.44 919.919 C 1366.26 924.994 1355.48 918.331 1352.72 925.227 C 1353.96 929.121 1353.88 928.952 1356.42 932.157 C 1359.94 933.874 1361.05 934.195 1364.86 935.283 C 1363.24 979.09 1363.89 1024.48 1364.07 1068.38 C 1346.09 1064.33 1327.86 1061.4 1309.51 1059.62 C 1309.19 1030.14 1309.07 1000.65 1309.13 971.165 C 1309.12 954.372 1308.6 932.906 1309.43 916.339 L 1320.01 908.849 C 1306.09 903.782 1293.7 902.89 1278.91 902.621 C 1280.16 905.03 1283.53 911.424 1283.76 913.812 C 1285.45 931.441 1285.25 951.761 1285.25 969.475 C 1285.25 997.903 1286.62 1028.34 1285.47 1056.58 C 1276.52 1055.37 1267.65 1054.02 1258.63 1053.59 C 1255.8 1057.77 1253.08 1061.69 1250.55 1066.06 C 1245.57 1036.11 1249.4 944.368 1254.07 914.366 L 1241.27 906.94 C 1240.62 895.034 1239.65 884.023 1229.75 875.546 C 1225 871.433 1218.8 869.402 1212.54 869.911 C 1201.91 870.861 1196.18 878.555 1190.95 886.86 C 1191.84 859.093 1190.92 830.849 1191.27 803.049 C 1191.41 792.434 1190.72 777.523 1191.66 767.243 C 1228.02 771.239 1262.2 778.876 1297.4 788.445 C 1301.83 789.649 1306.38 791.521 1310.69 789.749 L 1312.05 787.861 C 1308.59 767.51 1209.51 756.019 1191.32 754.685 C 1191.96 736.149 1191.1 714.822 1185.54 697.007 C 1180.16 679.768 1182.58 663.372 1179.05 646.483 C 1167.98 593.519 1143.32 526.518 1106.11 486.706 C 1100.24 480.32 1093.8 474.492 1086.86 469.295 C 1126.02 525.677 1154.11 587.267 1165.65 655.239 C 1145.31 626.596 1115.61 605.949 1081.68 596.861 C 1077.38 549.885 1067.89 507.612 1047.13 465.008 L 1039.6 452.159 L 1043.6 464.999 C 1050.45 492.311 1063.58 563.94 1064.23 591.452 C 1053.83 590.204 1043.43 589.027 1033.02 587.921 C 1033.13 578.319 1032.79 565.772 1033.17 557.339 C 1033.82 542.929 1019.69 533.153 1009.63 543.526 C 1002.54 550.838 1003.89 579.285 1003.88 588.129 C 992.793 589.369 984.93 590.548 973.868 592.614 C 974.664 560.413 984.199 514.031 991.41 482.116 C 994.238 469.604 999.269 455.199 1001.65 443.224 C 976.059 495.538 960.656 536.776 957.605 596.223 C 923.968 605.215 900.835 621.53 877.284 646.737 C 886.196 588.377 909.552 539.719 938.656 488.817 C 944.095 480.077 950.455 470.979 956.208 462.345 C 948.654 469.294 940.062 479.54 933.102 487.381 C 896.92 530.831 876.607 582.214 862.389 636.418 C 859.478 647.515 858.752 660.449 855.808 670.839 C 847.566 699.932 843.919 724.335 843.83 754.706 C 828.575 756.783 725.958 768.943 729.179 787.293 C 730.984 789.12 730.834 789.77 732.841 789.468 C 751.753 786.616 774.09 780.541 792.568 776.406 C 809.551 772.735 826.715 769.959 843.989 768.09 C 844.643 800.787 846.12 847.084 844.315 879.514 C 832.169 867.349 817.138 865.716 804.372 878.608 C 797.403 885.644 795.669 893.139 793.534 902.403 C 784.255 911.393 780.853 914.491 780.81 928.335 C 780.773 940.167 784.267 953.934 784.286 965.352 C 784.364 1013.53 784.232 1061.8 784.148 1109.98 C 740.48 1108.87 696.434 1104.41 652.982 1100.14 L 524.074 1087.99 C 504.573 1086.26 483.404 1083.79 464.057 1082.81 L 464.048 1064.73 C 470.049 1065.38 477.046 1065.96 482.937 1066.8 C 483.062 1061.81 484.394 1053.63 482.798 1049.58 C 479.603 1047.08 479.634 1047.88 474.772 1047.43 L 463.932 1045.63 L 463.908 1030.79 L 476.685 1031.72 C 480.024 1032.41 482.557 1033.34 485.771 1032.42 C 487.095 1024.99 487.156 1005.29 487.563 996.654 C 468.507 981.668 470.95 975.465 487.681 960.615 C 489.036 954.238 491.634 939.375 497.779 936.501 C 503.828 941.279 505.24 958.123 507.761 960.597 C 522.445 975.009 528.771 978.203 507.036 996.722 C 507.032 1009.43 507.571 1022.91 507.883 1035.67 C 526.23 1037.17 547.715 1039.71 565.939 1042.11 C 566.035 1030.33 566.015 1018.55 565.879 1006.78 C 551.49 994.044 549.101 989.42 566.684 978.381 C 568.121 972.146 570.01 958.914 576.49 956.649 C 581.549 959.687 584.847 974.265 587.099 980.771 C 603.309 990.01 600.217 996.319 587.913 1007.43 C 586.89 1019.64 587.156 1032.79 587.131 1045.09 C 603.17 1047.29 622.601 1048.7 638.926 1050.35 L 639.255 1016.45 C 624.466 1005.61 629.324 997.255 641.61 988.149 C 643.056 982.193 643.736 971.151 651.554 971.502 C 655.992 975.699 655.649 980.8 656.32 986.941 C 670.099 995.584 672.646 1004.28 660.534 1016.1 C 660.954 1028.28 660.831 1041.51 660.949 1053.77 L 691.226 1056.6 C 690.287 1033.08 694.55 999.532 687.633 977.089 C 685.445 969.986 675.131 966.471 668.494 963.971 L 667.987 936.512 C 672.392 935.063 682.735 931.118 680.327 925.035 C 675.335 922.085 670.385 923.026 665.199 921.409 C 650.304 916.764 664.31 907.185 666.111 900.957 C 665.297 893.259 658.553 889.861 652.932 883.325 C 652.593 881.803 651.931 880.626 652.825 879.911 C 664.086 870.904 698.848 867.941 711.769 866.939 C 714.45 853.429 724.163 832.398 722.719 820.058 C 719.196 789.954 693.388 791.664 732.237 770.513 C 731.434 726.31 737.08 681.767 753.07 640.359 C 778.036 575.706 820.309 518.916 879.043 481.239 C 900.443 467.511 918.281 459.415 941.263 449.024 C 941.208 442.686 941.64 436.72 942.037 430.403 C 946.726 427.437 954.137 423.737 959.212 421.023 C 959.502 398.496 957.022 371.15 957.99 350.639 C 962.281 345.892 964.238 344.475 969.201 340.723 C 969.834 331.9 969.999 310.73 977.656 305.75 C 980.686 305.403 981.524 305.268 984.458 304.469 C 990.727 299.032 1006.15 263.81 1008.06 254.279 C 1006.3 252.93 1004.6 251.508 1002.96 250.017 C 991.36 239.26 999.675 227.472 1008.97 218.995 L 1008.87 187.733 C 999.162 187.442 988.452 187.663 978.664 187.66 C 978.387 181.42 978.348 174.81 978.207 168.533 C 988.107 167.959 998.788 168.011 1008.76 167.877 L 1008.75 135.455 z M 716.803 908.251 L 725.821 915.047 C 725.794 967.032 725.325 1020.08 725.989 1071.98 C 736.105 1070.34 747.241 1068.75 757.222 1066.82 C 767.877 1064.51 776.48 1064.1 777.096 1051.21 C 773.694 1048.08 754.347 1053.36 749.014 1054.68 L 748.835 965.79 C 748.838 949.886 748.298 929.011 749.526 913.538 L 759.188 902.974 C 753.991 902.9 748.444 902.579 743.359 903.386 C 734.161 904.586 725.768 905.766 716.803 908.251 z M 1265.18 836.632 C 1265.27 823.353 1265.22 810.074 1265.04 796.796 L 1251.33 793.748 C 1251.03 805.158 1250.94 814.842 1251.3 826.266 C 1242.95 825.795 1228.76 824.535 1220.91 824.994 C 1228.31 827.879 1232.58 829.297 1240.25 831.333 C 1248.61 833.264 1256.71 835.207 1265.18 836.632 z M 511.265 1052.35 L 511.855 1070.71 L 535.772 1073.22 L 535.584 1055.16 C 527.108 1053.9 519.805 1053.09 511.265 1052.35 z M 1010.11 419.048 L 1023.04 419.027 L 1024.55 418.351 C 1025.53 403.605 1025.07 387.534 1025 372.677 C 1024.95 363.108 1023.43 361.339 1014.55 358.319 C 1007.58 377.065 1009.83 398.706 1010.11 419.048 z M 542.902 1073.74 C 549.242 1074.32 557.484 1075.36 563.643 1074.76 L 564.845 1057.52 C 558.132 1056.8 550.737 1055.82 544.062 1055.85 C 543.768 1061.83 543.549 1067.79 542.902 1073.74 z M 1017.18 478.678 C 1013.43 481.924 1010.06 485.181 1010 490.621 C 1009.98 493.07 1011.03 495.408 1012.86 497.032 C 1015.43 499.314 1018.2 499.709 1021.46 500.272 C 1024.85 497.845 1027.06 495.914 1027.85 491.476 C 1028.33 488.795 1027.73 486.035 1026.18 483.793 C 1023.89 480.465 1020.78 479.678 1017.18 478.678 z M 770.463 834.61 C 781.407 832.422 793.018 830.319 803.77 827.517 C 809.03 826.476 813.172 824.97 818.211 823.266 C 809.66 823.981 801.124 824.859 792.607 825.9 C 767.058 826.223 794.41 788.245 772.039 794.731 C 770.389 797.017 770.163 829.466 770.463 834.61 z M 926.512 471.2 C 919.43 475.509 914.282 479.005 907.556 483.878 C 892.907 494.893 880.524 504.484 867.681 517.91 C 816.588 571.324 785.164 644.873 774.853 717.495 C 773.251 728.788 772.237 740.157 771.818 751.555 L 787.937 747.865 C 797.357 665.456 813.965 610.058 863.324 541.685 C 875.933 524.219 893.396 500.762 908.974 486.065 C 915.128 481.07 920.627 476.497 926.512 471.2 z M 1200.49 839.983 C 1213.41 853.851 1240.5 855.924 1258.34 860.886 C 1269.7 864.045 1297.93 871.429 1308.84 869.373 C 1308.96 864.81 1309.6 865.967 1307.45 862.771 C 1292.3 854.289 1218.67 839.985 1200.49 839.983 z M 1282.42 882.761 C 1292.81 890.218 1298.7 895.263 1311.92 891.393 C 1309.66 882.469 1290.38 882.828 1282.42 882.761 z M 740.908 883.343 C 733.299 884.41 731.036 884.021 725.215 889.214 L 725.088 891.057 C 728.145 893.182 731.011 893.076 734.685 892.582 C 740.147 891.026 746.847 889.508 750.478 884.889 L 749.965 883.562 C 746.057 882.532 745.047 882.891 740.908 883.343 z M 611.804 1080.29 L 612.2 1063.23 C 606.792 1062.65 601.109 1061.88 595.703 1061.92 C 594.893 1078.7 594.583 1079.93 611.804 1080.29 z M 1036.34 358.344 C 1030.16 373.445 1030.56 400.1 1032.98 416.394 C 1033.54 420.198 1042.65 419.455 1045.89 419.516 C 1049.2 407.868 1050.25 374.17 1044.63 362.14 C 1043.17 359.021 1039.52 358.727 1036.34 358.344 z M 824.157 839.498 C 807.613 841.37 735.213 852.628 728.741 865.681 L 729.223 867.87 C 732.568 869.789 730.719 869.156 735.211 868.956 C 749.545 866.184 820.162 851.483 829.31 842.914 L 829.617 841.025 C 827.034 838.848 828.457 839.753 824.157 839.498 z M 633.125 1082.33 C 633.786 1067.57 635.636 1064.42 619.053 1063.73 L 619.009 1080.76 C 623.95 1081.48 628.108 1082.19 633.125 1082.33 z M 971.567 360.689 C 969 364.988 967.082 370.088 966.732 375.075 C 966.121 383.781 963.36 413.602 968.558 419.617 C 972.345 420.56 973.099 420.455 977.077 420.419 C 983.139 416.259 982.21 371.218 977.637 362.87 C 975.34 360.89 974.601 361.117 971.567 360.689 z M 993.945 358.647 C 985.359 366.81 985.749 407.529 989.299 418.336 C 991.952 420.818 992.486 420.154 996.821 420.942 C 1004.41 414.397 1003.72 369.921 998.095 360.617 C 997.513 359.654 995.005 358.958 993.945 358.647 z M 1057.78 361.658 C 1055.88 372.895 1051.8 407.031 1057.47 418.644 C 1058.35 420.43 1065.63 420.883 1067.85 421.056 C 1069.69 406.381 1073.25 378.637 1066.81 365.024 C 1065.22 361.654 1061.11 361.799 1057.78 361.658 z M 665.012 1069.84 L 665.067 1086.43 C 680.741 1087.65 696.395 1089.11 712.024 1090.82 L 712.448 1073.06 L 665.012 1069.84 z M 1119.88 477.707 C 1132.66 488.225 1142.79 500.225 1153.43 512.834 C 1205.53 573.687 1238.04 648.866 1246.67 728.514 C 1247.29 734.721 1247.93 741.989 1248.09 748.157 C 1251.68 749.133 1262.69 751.877 1265.57 753.091 C 1261.19 664.327 1220.95 561.571 1154.14 501.729 C 1146.69 495.052 1129.28 480.244 1119.88 477.707 z"/>
<path transform="translate(0,0)" fill="rgb(242,230,224)" fill-opacity="0.0117647" d="M 792.607 825.9 C 801.124 824.859 809.66 823.981 818.211 823.266 C 813.172 824.97 809.03 826.476 803.77 827.517 C 800.78 826.04 796.203 826.165 792.607 825.9 z"/>
<path transform="translate(0,0)" fill="rgb(242,230,224)" fill-opacity="0.0862745" d="M 926.512 471.2 C 920.627 476.497 915.128 481.07 908.974 486.065 L 907.556 483.878 C 914.282 479.005 919.43 475.509 926.512 471.2 z"/>
<path transform="translate(0,0)" fill="rgb(104,55,43)" d="M 870.663 719.263 C 883.689 679.397 898.524 651.587 937.427 631.857 C 978.789 610.879 1036.43 610.488 1079.9 623.948 C 1123.77 637.533 1156.95 673.889 1165.12 718.885 C 1138.4 708.827 1113.24 702.756 1084.18 700.759 C 1073.96 700.057 1035.34 694.764 1044.63 718.855 C 1046.14 722.777 1051.45 724.152 1055.16 724.71 C 1097.68 727.536 1129.15 721.657 1167.72 745.534 L 1167.7 766.196 C 1140.46 750.928 1110.91 746.866 1080.08 745.569 C 1069.34 745.597 1051.87 742.416 1044.44 752.071 C 1041.09 756.429 1044.1 768.04 1048.72 768.744 C 1089.53 774.97 1130.01 768.551 1168.13 789.516 L 1167.58 808.913 C 1141.33 799.13 1111.8 793.654 1083.6 792.469 C 1073.49 792.511 1057.46 791.146 1048.17 795.489 C 1037.48 800.486 1045.37 817.529 1055.94 818.278 C 1094.99 821.048 1131.24 814.403 1167.84 833.754 L 1168.01 855.678 C 1136.51 841.036 1102.6 839.816 1068.41 839.093 C 1061.15 838.94 1047.34 840.11 1044.29 847.983 C 1043.16 850.92 1043.25 854.185 1044.52 857.061 C 1048.48 865.935 1059.89 865.431 1068.16 865.692 C 1092.02 866.446 1116.29 865.763 1139.91 869.92 C 1147.44 871.715 1151.5 872.666 1158.64 875.52 L 1168.08 879.567 L 1168.26 900.761 C 1153.53 894.783 1055.35 871.485 1042.96 897.468 C 1035.12 913.925 1081.41 914.41 1088.36 913.092 C 1114.02 913.589 1144.93 914.4 1167.92 925.82 C 1167.9 932.944 1167.76 940.372 1167.87 947.464 C 1143.43 939.976 1119.05 935.159 1092.74 933.583 C 1083.78 933.047 1031.39 927.186 1045.01 953.453 C 1047.54 958.34 1062.79 959.296 1067.82 959.46 C 1097.5 960.992 1142.52 956.735 1167.94 974.479 L 1167.88 989.488 C 1147.13 983.055 1069.3 972.453 1050.7 982.115 C 1047.31 983.879 1044.59 986.361 1043.48 990.134 C 1042.46 993.582 1043.92 998.2 1045.98 1000.99 C 1048.33 1004.17 1051.13 1005.12 1054.91 1005.59 C 1064.24 1006.74 1074.1 1006.29 1083.52 1006.58 C 1110.68 1007.39 1141.47 1007.89 1167.84 1015.17 C 1167.8 1055.57 1163.37 1091.67 1133.52 1121.42 C 1100.99 1153.83 1062.39 1162.2 1018.01 1162.11 C 1001.61 1162.24 985.243 1160.65 969.176 1157.36 L 954.596 1153.32 C 934.202 1145.18 919.609 1137.4 904.173 1121.59 C 872.968 1089.62 867.857 1058.87 868.486 1015.93 C 882.618 1012.72 896.955 1009.75 911.379 1008.27 C 926.668 1006.7 981.587 1009.52 989.757 1003.36 C 992.29 1001.44 994.534 998.318 994.58 995.023 C 994.632 991.217 993.061 988.193 990.282 985.692 C 978.101 974.727 947.11 978.832 931.683 979.13 C 932.725 972.134 934.64 966.891 935.441 959.848 C 946.11 960.106 986.608 963.184 992.649 951.797 C 999.444 938.986 982.349 933.673 971.665 932.982 C 935.585 930.65 903.66 933.901 869.202 945.572 L 868.89 925.017 C 905.251 909.302 942.454 913.429 980.635 911.391 C 998.918 910.694 998.978 887.189 980.498 886.129 C 940.827 883.853 906.715 887.097 869.164 899.923 L 868.91 878.815 C 896.566 865.295 924.904 866.09 955.026 866.237 C 966.926 866.101 1000.67 869.439 993.113 847.661 C 987.66 836.515 963.321 839.088 953.59 839.011 C 922.331 838.766 897.383 842.739 869.166 855.659 C 869.035 848.532 869.15 841.198 869.177 834.052 C 894.12 821.387 924.456 820.006 952.349 819.175 C 962.94 818.859 999.81 822.156 993.392 800.787 C 992.509 797.848 986.51 793.551 983.512 793.284 C 946.178 789.958 901.89 791.285 868.639 810.316 L 868.89 788.969 C 905.915 771.763 929.63 771.568 969.706 772.346 C 977.971 772.506 990.718 771.807 993.835 762.591 C 994.888 759.558 994.626 756.223 993.112 753.392 C 987.583 743.118 965.606 745.866 955.569 745.914 C 923.853 746.067 896.728 748.224 869.208 765.425 L 869.019 744.088 C 883.656 736.113 899.482 730.548 915.889 727.606 C 938.103 723.824 958.376 725.296 980.509 725.392 C 997.618 725.466 1000.53 697.279 976.49 699.729 C 973.967 699.462 972.478 699.595 970.39 698.242 C 966.618 691.354 971.804 685.411 970.743 677.758 L 972.723 676.475 C 976.661 676.913 982.143 676.931 986.215 677.067 C 986.966 664.542 986.873 651.172 987.006 638.555 C 979.532 639.144 969.124 641.445 961.694 643.022 L 955.769 645.178 C 925.859 657.404 907.502 677.054 899.222 708.718 C 888.222 711.866 881.155 714.727 870.663 719.263 z M 1024.46 1129.56 C 1036.2 1127.06 1045.68 1118.44 1049.29 1107 C 1052.9 1095.56 1050.07 1083.06 1041.88 1074.28 C 1033.7 1065.51 1021.43 1061.82 1009.77 1064.61 C 992.047 1068.87 981.037 1086.57 985.06 1104.34 C 989.082 1122.11 1006.64 1133.35 1024.46 1129.56 z M 893.154 1025.28 C 897.446 1054.66 906.843 1079.37 925.229 1102.7 C 931.66 1109.17 934.939 1111.98 942.637 1117.11 C 935.15 1090.09 929.305 1066.07 929.33 1037.83 C 929.333 1034.08 929.036 1023.46 927.788 1020.25 C 925.551 1020.05 926.198 1019.94 924.061 1020.39 C 914.264 1021.81 902.698 1023.2 893.154 1025.28 z M 1008.98 676.77 C 1013.98 677.109 1020.11 677.731 1025.02 677.497 C 1025.09 664.762 1024.85 650.13 1025.48 637.559 C 1018.69 637.055 1015.63 636.914 1008.84 637.359 C 1008.82 650.109 1008.54 664.129 1008.98 676.77 z M 1045.99 638.621 C 1046.01 651.706 1046.19 664.791 1046.53 677.872 C 1050.81 678 1059.08 678.53 1062.96 677.779 C 1063.43 665.981 1064.1 653.84 1063.96 642.058 C 1057.02 639.78 1053.58 638.949 1045.99 638.621 z"/>
<path transform="translate(0,0)" fill="rgb(104,55,43)" d="M 1015.78 1074.5 C 1028.37 1073.36 1039.55 1082.55 1040.86 1095.14 C 1042.16 1107.72 1033.1 1119.01 1020.53 1120.47 C 1012.26 1121.43 1004.12 1117.86 999.212 1111.14 C 994.303 1104.42 993.389 1095.58 996.817 1088 C 1000.25 1080.41 1007.49 1075.26 1015.78 1074.5 z"/>
<path transform="translate(0,0)" fill="rgb(189,162,157)" d="M 1086.35 652.747 C 1091.39 654.479 1093.36 655.73 1097.93 658.372 C 1098.74 667.319 1099.95 678.869 1098.4 687.712 C 1094.13 686.719 1089.59 685.927 1086.98 682.185 C 1082.29 675.468 1084.93 660.563 1086.35 652.747 z"/>
<path transform="translate(0,0)" fill="rgb(104,55,43)" d="M 1316.53 1283.44 C 1340.83 1280.69 1435.82 1285.47 1455.63 1298.05 C 1475.77 1310.84 1519.83 1368.23 1537.23 1388.26 C 1552.02 1405.29 1565.42 1426.02 1583.65 1442.65 C 1585.4 1436.69 1586.62 1430.36 1587.92 1424.27 C 1604.13 1438.09 1627.12 1471.37 1642.64 1488.62 C 1652.9 1501.35 1664.81 1512.94 1674.53 1526.09 C 1695.62 1554.61 1666.44 1557.08 1645.93 1556.25 C 1655.06 1549.88 1658.18 1547.23 1664.8 1538.34 C 1650.27 1532.01 1615.87 1524.83 1599.23 1521.09 C 1545.46 1508.73 1491.3 1498.13 1436.84 1489.29 C 1411.28 1486.58 1390.23 1482.58 1362.96 1480.95 C 1283.76 1476.2 1197.54 1480.78 1123.49 1511.58 C 1109.07 1517.58 1089.95 1530.17 1076.75 1538.52 C 1061.44 1521.53 1048.11 1514.27 1025.64 1511.14 C 1024.65 1486.17 1026 1456.34 1025.97 1430.72 C 1033.6 1422.08 1041.16 1412.86 1048.94 1404.45 C 1125.39 1321.82 1206.92 1289.41 1316.53 1283.44 z M 1093.77 1472.86 C 1089.93 1475.87 1086.03 1478.4 1083.46 1482.44 C 1086.79 1482.71 1093.41 1476.62 1096.31 1474.23 C 1183.4 1406.16 1308.44 1393.81 1415.17 1402.35 C 1432.98 1403.75 1450.73 1405.89 1468.36 1408.78 C 1475.15 1409.92 1490.77 1413.99 1495.17 1414.05 L 1494.81 1413.15 C 1475.03 1405 1420.84 1397.02 1398.75 1394.26 C 1320.4 1384.47 1227.75 1394.96 1156.81 1430.9 C 1134.33 1442.28 1113.52 1457.03 1093.77 1472.86 z M 1469.24 1456.64 C 1486.48 1460.07 1503.64 1463.86 1520.72 1468 C 1525.28 1469.1 1548.54 1476.01 1550.94 1475.9 C 1549.29 1473.03 1524.72 1464.63 1520.1 1463.39 C 1518.97 1463.09 1517.83 1462.8 1516.7 1462.52 C 1506.92 1457.15 1473.36 1450.4 1461.81 1447.73 C 1376.52 1428.07 1282.65 1423.56 1198.09 1449.07 C 1171.07 1457.76 1147.41 1466.88 1122.75 1481.47 C 1119.72 1483.19 1116.76 1484.29 1115.24 1487.24 C 1118 1487.6 1120.43 1485.76 1123.06 1484.11 C 1149.68 1470.22 1161.76 1467.78 1188.04 1458.33 C 1204.88 1455.03 1218.99 1450.57 1237.08 1447.89 C 1316.11 1436.23 1391.31 1442.57 1469.24 1456.64 z M 1440.46 1371.49 C 1446.92 1372.32 1453.4 1373 1459.89 1373.54 C 1454.52 1371.97 1449.26 1370.79 1443.82 1369.52 C 1370.09 1356.07 1299.61 1352.95 1226.2 1370.5 C 1209.83 1374.41 1184.61 1381.4 1169.73 1389.28 C 1144.24 1398.16 1117.94 1416 1096.61 1432.35 C 1091.5 1436.5 1087.57 1439.69 1082.86 1444.31 C 1088.65 1441.57 1091.97 1438.89 1097.11 1435.09 C 1129.66 1411.75 1139.23 1410.53 1171.13 1394.43 C 1191.13 1389.05 1207.28 1381.58 1229.87 1376.53 C 1292.88 1362.44 1376.92 1361.51 1440.46 1371.49 z M 1232.73 1332.26 C 1169.05 1348.37 1123.26 1367.35 1074.67 1414.67 C 1072.29 1416.96 1068.21 1420.21 1067.34 1423.14 C 1070.97 1421.68 1074.29 1417.86 1077.2 1415.03 C 1119.32 1373.01 1179.09 1351.29 1235.8 1338.6 C 1289.69 1329.23 1356.64 1325.12 1410.69 1332.43 C 1414.13 1332.83 1416.17 1333.36 1419.52 1332.4 L 1416.56 1331.25 C 1353.84 1319.99 1295.11 1319.7 1232.73 1332.26 z"/>
<path transform="translate(0,0)" fill="url(#Gradient5)" d="M 1074.67 1414.67 C 1123.26 1367.35 1169.05 1348.37 1232.73 1332.26 C 1234.12 1334.87 1234.43 1334.91 1234.54 1337.79 L 1235.8 1338.6 C 1179.09 1351.29 1119.32 1373.01 1077.2 1415.03 L 1074.67 1414.67 z"/>
<path transform="translate(0,0)" fill="url(#Gradient4)" d="M 1169.73 1389.28 C 1171.81 1388.92 1173.6 1388.58 1175.7 1388.36 L 1176.62 1390.78 L 1171.25 1392.83 C 1170.91 1394.16 1170.77 1393.65 1171.13 1394.43 C 1139.23 1410.53 1129.66 1411.75 1097.11 1435.09 L 1096.61 1432.35 C 1117.94 1416 1144.24 1398.16 1169.73 1389.28 z"/>
<path transform="translate(0,0)" fill="url(#Gradient3)" d="M 1122.75 1481.47 C 1147.41 1466.88 1171.07 1457.76 1198.09 1449.07 L 1200.69 1450.38 L 1201.05 1452.08 C 1198.5 1454.51 1191.75 1456.03 1188.04 1457.15 L 1188.04 1458.33 C 1161.76 1467.78 1149.68 1470.22 1123.06 1484.11 L 1122.75 1481.47 z"/>
<path transform="translate(0,0)" fill="url(#Gradient2)" d="M 1469.24 1456.64 L 1471.33 1455.57 C 1470.11 1454.98 1468.88 1454.39 1467.66 1453.8 L 1467.33 1451.94 L 1466.43 1452.75 L 1467.2 1453.57 L 1467.68 1451.91 C 1481.11 1450.87 1510.18 1465.03 1516.7 1462.52 C 1517.83 1462.8 1518.97 1463.09 1520.1 1463.39 C 1524.72 1464.63 1549.29 1473.03 1550.94 1475.9 C 1548.54 1476.01 1525.28 1469.1 1520.72 1468 C 1503.64 1463.86 1486.48 1460.07 1469.24 1456.64 z"/>
<path transform="translate(0,0)" fill="rgb(121,88,79)" d="M 1552.7 1476.26 C 1559.8 1477.64 1572.82 1481.31 1578.59 1485.7 C 1570.78 1484.44 1558.83 1481.35 1552.7 1476.26 z"/>
<path transform="translate(0,0)" fill="rgb(242,230,224)" fill-opacity="0.0431373" d="M 1093.77 1472.86 L 1096.31 1474.23 C 1093.41 1476.62 1086.79 1482.71 1083.46 1482.44 C 1086.03 1478.4 1089.93 1475.87 1093.77 1472.86 z"/>
<path transform="translate(0,0)" fill="rgb(242,230,224)" fill-opacity="0.0666667" d="M 1096.61 1432.35 L 1097.11 1435.09 C 1091.97 1438.89 1088.65 1441.57 1082.86 1444.31 C 1087.57 1439.69 1091.5 1436.5 1096.61 1432.35 z"/>
<path transform="translate(0,0)" fill="rgb(228,201,194)" fill-opacity="0.345098" d="M 1074.67 1414.67 L 1077.2 1415.03 C 1074.29 1417.86 1070.97 1421.68 1067.34 1423.14 C 1068.21 1420.21 1072.29 1416.96 1074.67 1414.67 z"/>
<path transform="translate(0,0)" fill="rgb(242,230,224)" fill-opacity="0.109804" d="M 1443.82 1369.52 C 1449.26 1370.79 1454.52 1371.97 1459.89 1373.54 C 1453.4 1373 1446.92 1372.32 1440.46 1371.49 L 1443.82 1369.52 z"/>
<path transform="translate(0,0)" fill="rgb(242,230,224)" fill-opacity="0.0470588" d="M 1122.75 1481.47 L 1123.06 1484.11 C 1120.43 1485.76 1118 1487.6 1115.24 1487.24 C 1116.76 1484.29 1119.72 1483.19 1122.75 1481.47 z"/>
<path transform="translate(0,0)" fill="rgb(228,201,194)" fill-opacity="0.317647" d="M 1416.56 1331.25 L 1419.52 1332.4 C 1416.17 1333.36 1414.13 1332.83 1410.69 1332.43 L 1416.56 1331.25 z"/>
<path transform="translate(0,0)" fill="rgb(104,55,43)" d="M 1697.19 789.715 C 1750.4 839.032 1741.64 879.727 1730.14 941.195 C 1727.64 954.54 1732.96 1016.03 1735.63 1030.62 C 1739.05 986.544 1739.01 950.134 1779 923.995 C 1785.65 946.344 1787.02 968.43 1781.32 991.146 C 1774.38 1018.77 1755.2 1038 1737.99 1059.31 C 1733.9 1086.92 1734.62 1122.49 1728.12 1149.6 C 1734.04 1138.35 1738.62 1125.62 1744.42 1114.25 C 1761.15 1081.46 1778.97 1061.88 1813.86 1049.99 C 1813.57 1096.56 1800.42 1129.5 1759.14 1154.3 C 1750.59 1159.94 1733.7 1166.41 1728 1175.32 C 1718.15 1190.73 1712.59 1214.26 1706.74 1231.73 C 1703.58 1241.51 1699.82 1251.08 1695.48 1260.39 C 1729.12 1213.32 1748.56 1190.58 1807.92 1183.63 C 1798.3 1227.29 1773.91 1253.27 1730.98 1265.94 C 1718.09 1269.75 1702.21 1273.55 1690.15 1278.85 L 1688.74 1279.47 C 1671.47 1303.21 1656.28 1327.83 1638.03 1352.29 C 1642.87 1348.42 1648.18 1343.43 1652.86 1339.23 C 1682.75 1312.3 1722.47 1297.59 1762.61 1309.75 C 1755.68 1321.64 1747.64 1330.6 1737.58 1339.79 C 1704.2 1370.25 1671.43 1368.24 1629.15 1366.01 C 1613.38 1384.83 1597.63 1399.81 1581.65 1417.73 C 1576.59 1413.05 1573.56 1409.73 1568.99 1404.56 C 1575.14 1397.53 1585.08 1388.43 1591.99 1381.73 C 1592.42 1197.88 1590.61 1013.06 1592.71 829.288 C 1601.6 826.379 1609.71 822.841 1618.84 820.063 C 1619.28 869.262 1619.35 918.464 1619.05 967.664 L 1618.95 1207.44 C 1618.92 1253.4 1617.31 1306.06 1619.02 1351.25 C 1626.95 1341.63 1635.73 1328.97 1643.2 1318.69 C 1623.6 1269.32 1613.4 1223.23 1652.11 1180.03 C 1653.63 1182.1 1655.11 1184.2 1656.53 1186.33 C 1675.4 1215.05 1673.99 1242.46 1667.61 1274.18 C 1666.35 1278.08 1665.14 1281.99 1663.97 1285.92 C 1666.16 1282.27 1669.51 1277.06 1671.31 1273.38 C 1684.61 1250.32 1695.96 1214.99 1703.67 1189.59 C 1698.15 1177.28 1688.49 1163.77 1679.72 1153.45 C 1649.58 1117.98 1647.79 1093.89 1652.26 1048.85 C 1706.32 1077.41 1705.92 1103.9 1711.54 1158.26 C 1712.91 1152.75 1714.08 1147.19 1715.06 1141.6 C 1717.54 1126.98 1719.26 1111.93 1720.77 1097.45 C 1723.36 1072.7 1725.56 1059.35 1705.16 1041.71 C 1694.33 1032.35 1680.06 1018.08 1671.96 1006.61 C 1655.38 983.353 1648.68 954.482 1653.32 926.303 C 1655.71 927.259 1658.05 928.303 1660.36 929.431 C 1698.29 948.295 1707.61 974.594 1720.2 1012.36 C 1717.76 973.586 1721.71 951.726 1700.45 917.994 C 1676.75 880.405 1673.4 828.61 1697.19 789.715 z"/>
<path transform="translate(0,0)" fill="rgb(104,55,43)" d="M 1052.61 1191.37 C 1099.02 1185.62 1137.08 1168.73 1166.4 1130.78 C 1178.82 1114.69 1187.67 1096.15 1192.37 1076.37 C 1195.49 1062.97 1197.31 1049.31 1197.81 1035.56 C 1199.56 992.833 1196.63 949.156 1198.49 906.299 C 1199.07 892.841 1208.15 881.966 1222 891.073 C 1226.89 894.289 1226.85 901.713 1227.11 906.77 C 1227.67 934.15 1226.84 961.27 1227.21 988.677 C 1227.89 1039.42 1229.11 1078.45 1205.14 1125.03 C 1175.91 1181.8 1116.16 1217.83 1052.23 1221.35 L 1051.76 1272.5 C 1051.58 1291.15 1046.6 1303.85 1068.8 1308.42 C 1086.29 1312.03 1104.92 1312.84 1122.13 1316.4 C 1095.25 1335.64 1062.05 1357.87 1040.94 1384.14 L 1039.46 1385.8 C 1031.76 1393.33 1024.65 1403.1 1018.2 1411.79 C 982.322 1361.57 959.599 1345.6 908.765 1313.57 C 926.098 1312.44 964.905 1308.65 980.567 1304.81 C 980.759 1277.42 980.76 1250.04 980.57 1222.66 C 946.761 1217.31 919.531 1209.86 890.094 1191.1 C 853.094 1167.51 822.977 1124.6 813.577 1081.66 C 810.522 1067.78 809.295 1058.05 809.053 1043.91 C 808.248 1002.19 809.598 959.939 808.816 918.18 C 808.908 911.441 808.886 907.354 809.987 900.695 C 816.579 880.23 833.915 887.806 835.319 898.897 C 848.523 1003.21 804.541 1115.33 923.561 1174.23 C 941.191 1182.97 960.237 1188.49 979.805 1190.54 C 980.255 1185.17 980.834 1179.43 981.112 1174.09 C 1005.2 1175.52 1030.88 1173.45 1052.03 1174.79 L 1052.61 1191.37 z"/>
<path transform="translate(0,0)" fill="rgb(104,55,43)" d="M 464.282 1095.38 C 519.743 1098.56 576.351 1105.34 631.715 1110.35 C 686.451 1115.31 728.876 1127.22 783.925 1119.13 C 785.03 1168.91 784.965 1218.72 783.73 1268.51 C 757.709 1264.5 744.553 1263.17 718.115 1263.07 C 718.321 1241.73 718.671 1220.39 719.166 1199.06 C 707.04 1198.03 694.001 1197.51 681.713 1196.64 C 678.912 1198.81 675.523 1202.29 672.906 1204.81 C 672.358 1223.38 673.493 1245 673.794 1263.94 L 641.363 1266.19 C 641.037 1248.03 641.599 1222.94 642.904 1204.92 C 639.691 1200.26 636.931 1197.61 633.035 1193.61 C 623.265 1192.97 616.125 1193.01 605.982 1191.82 L 596.608 1201.95 C 597.508 1225.17 597.424 1250.47 597.791 1273.85 C 584.713 1276.22 578.343 1278.58 565.977 1283.25 C 565.857 1255.67 565.46 1228.7 567.121 1201.14 L 558.327 1190 C 548.401 1188.66 537.53 1188.32 527.525 1188.03 L 518.561 1198.66 C 519.362 1215.23 518.945 1236.27 518.953 1253.03 C 518.965 1278.71 519.175 1305.32 518.492 1330.89 C 513.277 1336.68 493.367 1360.44 488.443 1361.47 L 487.477 1358.96 C 485.487 1310.77 488.139 1260.15 487.775 1211.81 C 487.75 1208.48 489.492 1202.71 490.51 1199.4 C 478.973 1184.17 484.963 1186.58 463.575 1185.67 L 463.991 1165.62 C 485.438 1166.16 509.268 1168.17 530.927 1169.56 L 640.546 1176.61 C 662.996 1178.11 686.467 1180.19 708.958 1180.83 C 713.422 1180.96 717.152 1180.2 720.132 1176.93 L 719.912 1174.91 C 704.162 1167.05 496.328 1158.95 464.344 1157.29 L 464.398 1124 C 480.182 1123.89 501.193 1125.66 517.279 1126.68 C 561.769 1129.88 606.223 1133.55 650.633 1137.71 C 662.509 1138.73 716.686 1146.73 722.031 1138.47 C 719.783 1131.77 708.586 1130.08 702.266 1129.63 C 681.384 1128.14 660.481 1126.73 639.615 1125.03 L 464.013 1111.93 C 463.831 1105.98 464.01 1101.3 464.282 1095.38 z"/>
<path transform="translate(0,0)" fill="rgb(104,55,43)" d="M 1250.12 1072.93 C 1287.58 1074.58 1345.13 1083.53 1383.15 1088.43 C 1377.89 1093.95 1373.06 1098.64 1367.51 1103.87 C 1366.43 1117.72 1366.63 1136.03 1366.53 1150.17 C 1366.56 1185.46 1366.91 1220.75 1367.58 1256.04 L 1367.47 1260.39 C 1365.14 1263.82 1353.52 1262.09 1348.54 1261.83 C 1315.11 1260.35 1281.63 1263.19 1248.92 1270.27 C 1250.48 1205.16 1247.52 1137.45 1250.12 1072.93 z"/>
<path transform="translate(0,0)" fill="rgb(104,55,43)" d="M 1291.51 1498.75 C 1323.24 1499.2 1355.29 1501.26 1386.97 1503.16 C 1394.05 1503.59 1401.21 1504.13 1408.23 1505.14 L 1408.15 1665.96 C 1400.87 1661.69 1393.61 1657.38 1386.38 1653.01 L 1350.28 1629.8 C 1330.54 1641.12 1310.85 1653.81 1291.3 1665.69 C 1290.48 1612.21 1290.63 1552.25 1291.51 1498.75 z M 1344.26 1568.58 C 1343.93 1582.72 1338.7 1599.44 1357.17 1598.95 C 1357.78 1588.46 1357.72 1579.42 1357.61 1568.96 C 1363.83 1568.93 1380.28 1570.09 1378.93 1560.05 C 1372.95 1553.39 1365.9 1554.81 1357.6 1555.08 C 1357.94 1541.21 1361.23 1532.82 1344.91 1531.21 C 1344.91 1539.17 1344.86 1547.13 1344.76 1555.09 C 1337.48 1554.94 1326.25 1553.38 1322.36 1561.12 C 1324.16 1570.06 1337.12 1568.49 1344.26 1568.58 z"/>
<path transform="translate(0,0)" fill="rgb(104,55,43)" d="M 420.923 1569.74 C 431.13 1568.91 441.788 1568.44 452.068 1568.01 C 593.284 1562.08 734.941 1552.42 876.053 1565.51 C 895.259 1567.29 914.882 1568.55 933.868 1571.18 C 974.969 1604.46 1027.85 1613.65 1077.28 1591.13 C 1086.97 1586.72 1099.66 1573.36 1110.03 1571.56 C 1122.13 1569.47 1136.31 1567.97 1148.55 1566.62 C 1189.87 1561.94 1231.42 1559.54 1273 1559.46 L 1272.96 1578.74 C 1219.41 1579.22 1160.77 1585.77 1107.37 1591.47 C 1079.85 1614.89 1055.05 1620.96 1018.89 1621.34 C 993.204 1621.61 968.278 1615.93 946.127 1602.57 C 940.126 1598.94 932.737 1591.27 926.001 1590.5 C 908.033 1588.45 889.123 1586.32 871.124 1584.92 C 782.646 1578 687.382 1577.03 598.736 1580.88 L 563.684 1582.2 C 516.525 1583.23 468.311 1586.38 421.1 1588.08 L 420.923 1569.74 z"/>
<path transform="translate(0,0)" fill="rgb(104,55,43)" d="M 1419.58 1059.46 C 1456.71 1058.7 1493.85 1058.9 1530.97 1060.07 C 1531.32 1098.39 1529.58 1136.79 1531.37 1175.2 C 1534.71 1177.98 1538.79 1180.61 1539.89 1184.61 L 1538.68 1186.14 C 1533.53 1187.61 1528.53 1186.64 1523.1 1186.13 C 1488.99 1181.7 1437.72 1184.24 1403.08 1186.12 C 1405.47 1182.43 1408.36 1178.48 1410.9 1174.84 C 1412.16 1161.58 1411.75 1143.91 1411.69 1130.38 L 1411.39 1060.81 C 1414.12 1059.19 1416.08 1059.62 1419.58 1059.46 z M 1474.49 1173.11 L 1490.43 1174.12 C 1491.66 1164.2 1492.21 1154.04 1491.87 1144.04 C 1491.22 1125.34 1498.64 1083.5 1469.6 1083.91 C 1454.13 1090.29 1451.95 1098.49 1450.75 1114.81 C 1449.32 1134.29 1450.56 1153.99 1451.44 1173.49 C 1459.12 1173.22 1466.81 1173.09 1474.49 1173.11 z"/>
<path transform="translate(0,0)" fill="rgb(104,55,43)" d="M 1411.55 1198.16 C 1450.19 1197.84 1492.45 1197.23 1530.96 1198.22 L 1531.03 1344.9 C 1511.92 1322.8 1482.95 1287.75 1455.78 1277.1 C 1442.78 1272.01 1425.67 1269.58 1411.78 1267.64 C 1410.43 1245.54 1411.14 1220.42 1411.55 1198.16 z"/>
<path transform="translate(0,0)" fill="rgb(104,55,43)" d="M 1469.57 877.796 C 1482.72 880.215 1479.52 888.298 1479.37 899.918 C 1487.51 900.2 1494.15 899.237 1499.46 906.288 C 1500.2 916.538 1485.61 914.924 1479.03 914.767 C 1478.95 926.012 1479.47 935.485 1480.15 946.664 C 1488.85 955.12 1486.49 957.245 1481.56 967.488 C 1504.31 983.012 1506.42 992.433 1513.54 1018 C 1516.48 1014.74 1518.43 1011.81 1522.44 1010.38 C 1532.28 1011.46 1529.93 1030.93 1529.89 1038.41 C 1533.26 1039.91 1536.13 1040.59 1537.78 1043.68 L 1537.13 1045.4 C 1529.51 1049.84 1486.78 1048.09 1475.2 1048.02 C 1465.27 1047.97 1407.86 1051.62 1403.33 1045.23 C 1405 1041.15 1409.82 1039.85 1413.67 1038.55 C 1413.09 1030.71 1410.39 1016.16 1419.32 1013.18 C 1423.08 1013.53 1424.93 1015.36 1428.07 1017.56 C 1435.74 983.928 1439.19 989.759 1461.52 968.11 L 1461.15 967.06 L 1460.57 965.322 C 1457.33 955.874 1458.06 954.617 1465.11 947.898 L 1465.25 914.478 C 1457.04 914.91 1450.19 916.43 1444.41 909.596 C 1442.99 898.847 1458.63 900.45 1465.39 900.462 C 1465.17 891.597 1462.98 883.981 1469.57 877.796 z M 1472.9 1030.51 C 1478.28 1028.58 1481.15 1022.7 1479.37 1017.27 C 1477.58 1011.83 1471.79 1008.8 1466.31 1010.44 C 1462.63 1011.54 1459.83 1014.55 1459.01 1018.31 C 1458.19 1022.06 1459.47 1025.96 1462.36 1028.5 C 1465.24 1031.03 1469.28 1031.8 1472.9 1030.51 z"/>
<path transform="translate(0,0)" fill="rgb(104,55,43)" d="M 1425.03 1560.25 C 1458.47 1559.34 1513.13 1563.94 1547.38 1565.94 L 1559.29 1566.43 C 1561.6 1567.03 1609.59 1569.61 1617.01 1570.31 C 1616.87 1575.81 1616.48 1581.64 1616.21 1587.16 C 1552.25 1586.23 1489.48 1580.01 1425.08 1579.95 L 1425.03 1560.25 z"/>
<path transform="translate(0,0)" fill="rgb(104,55,43)" d="M 562.282 544.524 C 565.486 547.372 569.76 560.362 571.46 564.392 C 576.241 575.721 591.852 581.096 602.636 585.614 C 577.882 592.923 571.859 598.125 562.624 622.716 C 553.913 595.915 546.335 593.403 521.521 583.888 C 550.13 577.05 552.732 570.36 562.282 544.524 z"/>
<path transform="translate(0,0)" fill="rgb(121,88,79)" d="M 868.946 973.767 C 891.726 960.662 909.377 960.528 935.441 959.848 C 934.64 966.891 932.725 972.134 931.683 979.13 C 905.596 980.635 892.796 982.009 868.57 992.437 L 868.946 973.767 z"/>
<path transform="translate(0,0)" fill="rgb(121,88,79)" d="M 969.201 650.981 C 968.996 658.398 967.096 671.458 972.723 676.475 L 970.743 677.758 C 971.804 685.411 966.618 691.354 970.39 698.242 C 972.478 699.595 973.967 699.462 976.49 699.729 C 961.084 699.935 946.212 701.053 930.869 702.39 L 931.204 701.486 L 931.786 699.988 C 935.483 690.204 940.884 684.193 945.412 675.586 C 955.029 657.304 949.932 658.165 969.201 650.981 z"/>
<path transform="translate(0,0)" fill="rgb(131,109,106)" d="M 806.854 494.095 C 789.223 477.589 656.61 345.892 654.882 336.531 C 663.216 341.922 697.518 376.273 706.637 385.359 C 725.315 403.999 743.878 422.753 762.324 441.622 C 778.539 458.173 795.586 475.059 809.57 493.589 L 806.854 494.095 z"/>
<path transform="translate(0,0)" fill="url(#Gradient1)" d="M 1285.56 259.769 C 1286.69 272.166 1186.16 432.596 1170.27 455.203 C 1169.3 444.246 1273.69 278.984 1285.56 259.769 z"/>
<path transform="translate(0,0)" fill="rgb(121,88,79)" d="M 615.231 453.643 C 617.121 452.776 618.112 452.969 620.363 452.797 C 643.489 467.161 666.369 481.917 688.993 497.059 C 715.69 514.783 743.6 533.08 766.971 554.905 C 731.356 536.433 694.232 507.684 660.187 485.392 C 651.927 479.983 620.339 458.547 615.231 453.643 z"/>
<path transform="translate(0,0)" fill="rgb(121,88,79)" fill-opacity="0.988235" d="M 1352.03 364.643 L 1353.26 366.263 C 1339.53 383.173 1319.23 404.55 1304.29 420.839 C 1280.04 447.28 1252.55 477.879 1225.48 500.975 C 1264.7 452.114 1307.51 408.662 1352.03 364.643 z"/>
<path transform="translate(0,0)" fill="rgb(121,88,79)" d="M 784.214 303.178 C 813.8 352.92 844.359 404.457 869.621 456.55 C 858.32 444.148 827.696 389.091 818.368 373.092 C 810.569 359.716 786.829 319.191 780.692 305.267 L 784.214 303.178 z"/>
<path transform="translate(0,0)" fill="rgb(131,109,106)" d="M 535.165 660.608 C 587.67 666.429 639.926 674.321 691.809 684.265 L 692.965 687.307 C 682.535 686.2 671.929 684.959 661.572 683.35 C 617.157 676.446 571.166 671.686 527.201 662.58 C 530.176 661.1 531.813 661.165 535.165 660.608 z"/>
<path transform="translate(0,0)" fill="rgb(121,88,79)" d="M 873.207 232.162 C 881.257 252.297 890.343 282.283 897.059 303.387 C 907.974 337.691 921.967 377.76 928.773 412.687 C 923.293 401.797 916.286 379.11 912.312 366.905 C 902.957 338.009 893.882 309.024 885.089 279.952 C 881.276 267.462 875.913 247.451 871.56 235.63 L 873.207 232.162 z"/>
<path transform="translate(0,0)" fill="rgb(104,55,43)" fill-opacity="0.988235" d="M 1162.55 237.459 L 1164.49 239.452 C 1158.48 256.978 1153.38 278.646 1148.43 296.777 C 1142.53 318.317 1135.93 339.658 1128.62 360.763 C 1125.65 369.46 1120.39 385.63 1116.29 393.443 L 1114.24 392.087 C 1129.12 339.397 1147.12 289.112 1162.55 237.459 z"/>
<path transform="translate(0,0)" fill="rgb(131,109,106)" d="M 599.447 562.919 C 612.674 563.907 715.879 609.343 728.998 617.019 C 717.117 616.729 610.751 570.725 599.447 562.919 z"/>
<path transform="translate(0,0)" fill="rgb(104,55,43)" fill-opacity="0.980392" d="M 1320.37 520.104 L 1320.52 521.395 C 1313.68 531.101 1286.03 549.027 1274.93 555.268 L 1274.94 553.936 C 1281.91 545.414 1310.2 526.604 1320.37 520.104 z"/>
<path transform="translate(0,0)" fill="rgb(160,156,156)" fill-opacity="0.952941" d="M 753.673 254.798 C 762.647 264.197 776.016 290.502 784.214 303.178 L 780.692 305.267 C 777.05 294.641 759.682 266.731 753.673 254.798 z"/>
<path transform="translate(0,0)" fill="rgb(127,123,126)" fill-opacity="0.968627" d="M 615.231 453.643 C 610.664 451.575 587.121 434.81 583.674 431.273 C 587.895 432.004 615.098 449.434 620.363 452.797 C 618.112 452.969 617.121 452.776 615.231 453.643 z"/>
<path transform="translate(0,0)" fill="rgb(242,230,224)" fill-opacity="0.0313725" d="M 956.208 462.345 C 950.455 470.979 944.095 480.077 938.656 488.817 L 933.102 487.381 C 940.062 479.54 948.654 469.294 956.208 462.345 z"/>
<path transform="translate(0,0)" fill="rgb(127,123,126)" fill-opacity="0.866667" d="M 1162.55 237.459 C 1164.77 230.39 1169.16 213.951 1172.79 208.546 C 1172.51 213.277 1166.03 233.277 1164.49 239.452 L 1162.55 237.459 z"/>
<path transform="translate(0,0)" fill="rgb(160,156,156)" fill-opacity="0.894118" d="M 871.56 235.63 C 869.528 227.394 865.765 217.16 864.607 209.164 C 867.858 214.808 870.995 225.616 873.207 232.162 L 871.56 235.63 z"/>
<path transform="translate(0,0)" fill="rgb(76,74,76)" fill-opacity="0.968627" d="M 691.809 684.265 C 697.797 685.357 703.489 686.017 709.001 688.504 L 707.967 688.075 C 704.656 689.857 697.599 687.943 692.965 687.307 L 691.809 684.265 z"/>
<path transform="translate(0,0)" fill="rgb(127,123,126)" fill-opacity="0.788235" d="M 1352.03 364.643 C 1356.59 359.832 1360.77 354.935 1366.29 351.283 C 1361.99 356.989 1358.16 361.03 1353.26 366.263 L 1352.03 364.643 z"/>
<path transform="translate(0,0)" fill="rgb(127,123,126)" fill-opacity="0.905882" d="M 527.201 662.58 C 523.694 662.054 517.119 661.285 514.439 659.553 C 520.697 658.989 528.739 660.022 535.165 660.608 C 531.813 661.165 530.176 661.1 527.201 662.58 z"/>
<path transform="translate(0,0)" fill="rgb(160,156,156)" fill-opacity="0.819608" d="M 1116.29 393.443 C 1114.92 397.735 1113.86 400.583 1112.09 404.726 C 1111.68 401.855 1113.52 395.25 1114.24 392.087 L 1116.29 393.443 z"/>
<path transform="translate(0,0)" fill="rgb(242,230,224)" fill-opacity="0.0117647" d="M 1043.6 464.999 L 1039.6 452.159 L 1047.13 465.008 L 1043.6 464.999 z"/>
<path transform="translate(0,0)" fill="rgb(242,230,224)" fill-opacity="0.0745098" d="M 1667.61 1274.18 L 1671.31 1273.38 C 1669.51 1277.06 1666.16 1282.27 1663.97 1285.92 C 1665.14 1281.99 1666.35 1278.08 1667.61 1274.18 z"/>
<path transform="translate(0,0)" fill="rgb(160,156,156)" fill-opacity="0.717647" d="M 809.57 493.589 C 811.42 495.658 811.393 495.564 812.537 498.078 C 809.65 497.451 809.401 496.427 806.854 494.095 L 809.57 493.589 z"/>
</svg>